<svg xmlns="http://www.w3.org/2000/svg" viewBox="0 0 32 32">
  <style>
    .icon-main { fill: #3c3c3b; }
    .icon-accent { fill: #f1851c; }
    @media (prefers-color-scheme: dark) { .icon-main { fill: #e0e0e0; } }
  </style>
  <g transform="scale(2) translate(-7.09, -6.75)">  <!-- Масштабирование для полного заполнения без отступов -->
    <circle class="icon-main" cx="15.09" cy="14.75" r="1.01"/>
    <path class="icon-main" d="M15.09,10.26c-2.48,0-4.49,2.01-4.49,4.49s2.01,4.49,4.49,4.49c.64,0,1.25-.13,1.8-.38l-1.59-1.59c-.07,0-.14,0-.21,0-1.4,0-2.53-1.13-2.53-2.53s1.13-2.53,2.53-2.53c.1,0,.19,0,.29.02l1.57-1.57c-.57-.26-1.2-.4-1.86-.4Z"/>
    <path class="icon-accent" d="M17.62,14.75c0,.73-.31,1.39-.81,1.85l1.38,1.38c.85-.82,1.38-1.97,1.38-3.24s-.51-2.38-1.34-3.2l-1.38,1.38c.47.46.77,1.1.77,1.81Z"/>
    <path class="icon-accent" d="M21.09,14.75c0,1.69-.7,3.22-1.83,4.31l1.41,1.41c1.49-1.45,2.41-3.48,2.41-5.72s-.91-4.23-2.37-5.68l-1.41,1.41c1.1,1.09,1.78,2.6,1.78,4.27Z"/>
    <path class="icon-main" d="M15.09,6.75c-4.42,0-8,3.58-8,8s3.58,8,8,8c1.62,0,3.12-.48,4.38-1.31l-1.45-1.45c-.87.49-1.87.76-2.93.76-3.32,0-6.01-2.69-6.01-6.01s2.69-6.01,6.01-6.01c1.09,0,2.11.29,2.99.79l1.45-1.45c-1.27-.85-2.79-1.34-4.43-1.34Z"/>
  </g>
</svg>