<?xml version="1.0" encoding="UTF-8"?>
<svg xmlns="http://www.w3.org/2000/svg">
<symbol id="max" viewBox="0 0 512 512">
  <path d="M224.34,436.09c-43.11,0-63.14-6.29-97.96-31.46-22.02,28.32-91.77,50.45-94.81,12.59,0-28.42-6.29-52.44-13.42-78.66C9.65,306.25,0,270.27,0,218.15,0,93.66,102.15,0,223.18,0s216.05,98.27,216.05,219.3c.41,119.16-95.74,216.15-214.9,216.79ZM226.12,107.61c-58.94-3.04-104.88,37.76-115.05,101.73-8.39,52.96,6.5,117.46,19.19,120.82,6.08,1.47,21.4-10.91,30.94-20.45,15.78,10.9,34.16,17.45,53.28,18.98,61.07,2.94,113.26-43.56,117.36-104.56,2.39-61.14-44.64-112.92-105.72-116.42v-.1Z"/>
</symbol>
</svg>
